<svg width="34" height="34" viewBox="0 0 34 34" fill="none" xmlns="http://www.w3.org/2000/svg">
<path d="M12.4872 28.4344C4.28205 30.7172 4.28205 24.6297 1 23.8688M23.9744 33V27.1104C24.0359 26.3847 23.9302 25.6552 23.6642 24.9703C23.3983 24.2854 22.9781 23.6609 22.4318 23.1383C27.5846 22.6056 33 20.7946 33 12.4852C32.9996 10.3604 32.1183 8.31713 30.5385 6.77822C31.2865 4.91927 31.2336 2.8645 30.3908 1.04078C30.3908 1.04078 28.4544 0.508122 23.9744 3.29314C20.2131 2.34779 16.2484 2.34779 12.4872 3.29314C8.00718 0.508122 6.07077 1.04078 6.07077 1.04078C5.2279 2.8645 5.17501 4.91927 5.92308 6.77822C4.33149 8.32854 3.44927 10.3903 3.46154 12.5309C3.46154 20.7794 8.87692 22.5904 14.0297 23.184C13.4898 23.7013 13.0735 24.3184 12.8077 24.9949C12.5419 25.6713 12.4327 26.3922 12.4872 27.1104V33" stroke="white" stroke-width="2" stroke-linecap="round" stroke-linejoin="round"/>
</svg>
