<svg width="34" height="34" viewBox="0 0 34 34" fill="none" xmlns="http://www.w3.org/2000/svg">
<path d="M23.4 11.1053C25.9461 11.1053 28.3879 12.1699 30.1883 14.065C31.9886 15.9601 33 18.5305 33 21.2105V33H26.6V21.2105C26.6 20.3172 26.2629 19.4604 25.6628 18.8287C25.0627 18.197 24.2487 17.8421 23.4 17.8421C22.5513 17.8421 21.7374 18.197 21.1373 18.8287C20.5372 19.4604 20.2 20.3172 20.2 21.2105V33H13.8V21.2105C13.8 18.5305 14.8115 15.9601 16.6118 14.065C18.4122 12.1699 20.854 11.1053 23.4 11.1053Z" stroke="white" stroke-width="2" stroke-linecap="round" stroke-linejoin="round"/>
<path d="M7.39999 12.7895H1V33H7.39999V12.7895Z" stroke="white" stroke-width="2" stroke-linecap="round" stroke-linejoin="round"/>
<path d="M4.2 7.73684C5.9673 7.73684 7.39999 6.22874 7.39999 4.36842C7.39999 2.50809 5.9673 1 4.2 1C2.43269 1 1 2.50809 1 4.36842C1 6.22874 2.43269 7.73684 4.2 7.73684Z" stroke="white" stroke-width="2" stroke-linecap="round" stroke-linejoin="round"/>
</svg>
